name Walk5.mot
datacolumns 19
datarows 22
range 2.32000000 2.34100000
endheader

                time	   L_ground_force_vx	   L_ground_force_vy	   L_ground_force_vz	   L_ground_force_px	   L_ground_force_py	   L_ground_force_pz	   R_ground_force_vx	   R_ground_force_vy	   R_ground_force_vz	   R_ground_force_px	   R_ground_force_py	   R_ground_force_pz	   L_ground_torque_x	   L_ground_torque_y	   L_ground_torque_z	   R_ground_torque_x	   R_ground_torque_y	   R_ground_torque_z	
          2.32000000	          2.02481172	          6.02275731	         -0.44396563	          0.17124637	          0.00000000	          0.08785601	          0.00000000	          0.00000000	          0.00000000	          0.00000000	          0.00000000	         -0.00000000	          0.00000000	         -0.00304282	          0.00000000	          0.00000000	         -0.00000000	          0.00000000	
          2.32100000	          1.33957137	          4.25143088	         -0.45693461	          0.16104106	          0.00000000	          0.08264137	          0.00000000	          0.00000000	          0.00000000	          0.00000000	          0.00000000	         -0.00000000	          0.00000000	         -0.00324964	          0.00000000	          0.00000000	         -0.00000000	          0.00000000	
          2.32200000	          0.70753108	          2.61464484	         -0.46707426	          0.15109492	          0.00000000	          0.07755782	          0.00000000	          0.00000000	          0.00000000	          0.00000000	          0.00000000	         -0.00000000	          0.00000000	         -0.00342660	          0.00000000	          0.00000000	         -0.00000000	          0.00000000	
          2.32300000	          0.12655589	          1.10714503	         -0.47458683	          0.14142348	          0.00000000	          0.07261342	          0.00000000	          0.00000000	          0.00000000	          0.00000000	          0.00000000	         -0.00000000	          0.00000000	         -0.00357557	          0.00000000	          0.00000000	         -0.00000000	          0.00000000	
          2.32400000	         -0.40550059	         -0.27636451	         -0.47966729	          0.13203994	          0.00000000	          0.06781502	          0.00000000	          0.00000000	          0.00000000	          0.00000000	          0.00000000	         -0.00000000	          0.00000000	         -0.00369836	          0.00000000	          0.00000000	         -0.00000000	          0.00000000	
          2.32500000	         -0.89078712	         -1.54119799	         -0.48250324	          0.12295528	          0.00000000	          0.06316834	          0.00000000	          0.00000000	          0.00000000	         -0.00000000	          0.00000000	         -0.00000000	          0.00000000	         -0.00379673	          0.00000000	          0.00000000	         -0.00000000	          0.00000000	
          2.32600000	         -1.33144650	         -2.69266623	         -0.48327480	          0.11417842	          0.00000000	          0.05867805	          0.00000000	          0.00000000	          0.00000000	         -0.00000000	          0.00000000	         -0.00000000	          0.00000000	         -0.00387239	          0.00000000	          0.00000000	         -0.00000000	          0.00000000	
          2.32700000	         -1.72960795	         -3.73605688	         -0.48215458	          0.10571635	          0.00000000	          0.05434781	          0.00000000	          0.00000000	          0.00000000	         -0.00000000	          0.00000000	         -0.00000000	          0.00000000	         -0.00392699	          0.00000000	          0.00000000	         -0.00000000	          0.00000000	
          2.32800000	         -2.08738027	         -4.67661643	         -0.47930765	          0.09757428	          0.00000000	          0.05018038	          0.00000000	          0.00000000	          0.00000000	         -0.00000000	          0.00000000	          0.00000000	          0.00000000	         -0.00396211	          0.00000000	          0.00000000	         -0.00000000	          0.00000000	
          2.32900000	         -2.40684557	         -5.51953384	         -0.47489159	          0.08975578	          0.00000000	          0.04617766	          0.00000000	          0.00000000	          0.00000000	         -0.00000000	          0.00000000	          0.00000000	          0.00000000	         -0.00397926	          0.00000000	          0.00000000	         -0.00000000	          0.00000000	
          2.33000000	         -2.69005369	         -6.26992586	         -0.46905649	          0.08226287	          0.00000000	          0.04234077	          0.00000000	          0.00000000	          0.00000000	         -0.00000000	          0.00000000	          0.00000000	          0.00000000	         -0.00397993	          0.00000000	          0.00000000	         -0.00000000	          0.00000000	
          2.33100000	         -2.93901719	         -6.93282384	         -0.46194507	          0.07509618	          0.00000000	          0.03867011	          0.00000000	          0.00000000	          0.00000000	         -0.00000000	          0.00000000	          0.00000000	          0.00000000	         -0.00396549	          0.00000000	          0.00000000	          0.00000000	          0.00000000	
          2.33200000	         -3.15570692	         -7.51316195	         -0.45369270	          0.06825507	          0.00000000	          0.03516543	          0.00000000	          0.00000000	          0.00000000	         -0.00000000	          0.00000000	          0.00000000	          0.00000000	         -0.00393730	          0.00000000	          0.00000000	          0.00000000	          0.00000000	
          2.33300000	         -3.34204810	         -8.01576679	         -0.44442759	          0.06173770	          0.00000000	          0.03182584	          0.00000000	          0.00000000	          0.00000000	         -0.00000000	          0.00000000	          0.00000000	          0.00000000	         -0.00389663	          0.00000000	          0.00000000	          0.00000000	          0.00000000	
          2.33400000	         -3.49991695	         -8.44534837	         -0.43427084	          0.05554116	          0.00000000	          0.02864994	          0.00000000	          0.00000000	          0.00000000	         -0.00000000	          0.00000000	          0.00000000	          0.00000000	         -0.00384469	          0.00000000	          0.00000000	          0.00000000	          0.00000000	
          2.33500000	         -3.63113777	         -8.80649212	         -0.42333666	          0.04966161	          0.00000000	          0.02563580	          0.00000000	          0.00000000	          0.00000000	         -0.00000000	          0.00000000	          0.00000000	          0.00000000	         -0.00378264	          0.00000000	          0.00000000	          0.00000000	          0.00000000	
          2.33600000	         -3.73748042	         -9.10365224	         -0.41173245	          0.04409430	          0.00000000	          0.02278107	          0.00000000	          0.00000000	          0.00000000	         -0.00000000	          0.00000000	          0.00000000	          0.00000000	         -0.00371157	          0.00000000	          0.00000000	          0.00000000	          0.00000000	
          2.33700000	         -3.82065830	         -9.34114599	         -0.39955904	          0.03883373	          0.00000000	          0.02008298	          0.00000000	          0.00000000	          0.00000000	         -0.00000000	          0.00000000	          0.00000000	          0.00000000	         -0.00363252	          0.00000000	          0.00000000	          0.00000000	          0.00000000	
          2.33800000	         -3.88232668	         -9.52314901	         -0.38691083	          0.03387368	          0.00000000	          0.01753839	          0.00000000	          0.00000000	          0.00000000	         -0.00000000	          0.00000000	          0.00000000	          0.00000000	         -0.00354646	          0.00000000	          0.00000000	          0.00000000	          0.00000000	
          2.33900000	         -3.92408134	         -9.65369161	         -0.37387597	          0.02920736	          0.00000000	          0.01514389	          0.00000000	          0.00000000	          0.00000000	         -0.00000000	          0.00000000	          0.00000000	          0.00000000	         -0.00345432	          0.00000000	          0.00000000	          0.00000000	          0.00000000	
          2.34000000	         -3.94745766	         -9.73665588	         -0.36053660	          0.02482742	          0.00000000	          0.01289575	          0.00000000	          0.00000000	          0.00000000	         -0.00000000	          0.00000000	          0.00000000	          0.00000000	         -0.00335696	          0.00000000	          0.00000000	          0.00000000	          0.00000000	
          2.34100000	         -3.95392990	         -9.77577362	         -0.34696902	          0.02072607	          0.00000000	          0.01079003	          0.00000000	          0.00000000	          0.00000000	         -0.00000000	          0.00000000	          0.00000000	          0.00000000	         -0.00325520	          0.00000000	          0.00000000	          0.00000000	          0.00000000	
